<svg xmlns="http://www.w3.org/2000/svg" xmlns:xlink="http://www.w3.org/1999/xlink" width="200" zoomAndPan="magnify" viewBox="0 0 150 44.249999" height="59" preserveAspectRatio="xMidYMid meet" version="1.0"><defs><g/><clipPath id="3788be9fc3"><path d="M 58.296875 1.804688 L 90.746094 1.804688 L 90.746094 19.503906 L 58.296875 19.503906 Z M 58.296875 1.804688 " clip-rule="nonzero"/></clipPath></defs><g fill="#a7934f" fill-opacity="1"><g transform="translate(37.912139, 30.386603)"><g><path d="M 7.34375 -9.40625 L 7.34375 -7 L 5.34375 -7 L 5.34375 -3.421875 C 5.34375 -2.992188 5.410156 -2.679688 5.546875 -2.484375 C 5.691406 -2.285156 5.957031 -2.1875 6.34375 -2.1875 L 7.34375 -2.1875 L 7.34375 -0.109375 C 7.050781 -0.015625 6.679688 0.0625 6.234375 0.125 C 5.785156 0.1875 5.394531 0.21875 5.0625 0.21875 C 4.007812 0.21875 3.203125 0.03125 2.640625 -0.34375 C 2.078125 -0.726562 1.796875 -1.378906 1.796875 -2.296875 L 1.796875 -7 L 0.484375 -7 L 0.484375 -9.40625 L 1.9375 -9.40625 L 2.703125 -12.25 L 5.34375 -12.25 L 5.34375 -9.40625 Z M 7.34375 -9.40625 "/></g></g></g><g fill="#a7934f" fill-opacity="1"><g transform="translate(46.707855, 30.386603)"><g><path d="M 9.90625 0 L 8.4375 -5.234375 L 8.375 -5.234375 L 6.890625 0 L 3.4375 0 L 0 -9.40625 L 3.8125 -9.40625 L 5.234375 -3.84375 L 5.359375 -3.84375 L 6.84375 -9.40625 L 10.359375 -9.40625 L 11.796875 -3.84375 L 11.921875 -3.84375 L 13.359375 -9.40625 L 16.8125 -9.40625 L 13.359375 0 Z M 9.90625 0 "/></g></g></g><g fill="#a7934f" fill-opacity="1"><g transform="translate(64.405414, 30.386603)"><g><path d="M 1.1875 -10.515625 L 1.1875 -12.90625 L 4.734375 -12.90625 L 4.734375 -10.515625 Z M 1.1875 0 L 1.1875 -9.40625 L 4.734375 -9.40625 L 4.734375 0 Z M 1.1875 0 "/></g></g></g><g fill="#a7934f" fill-opacity="1"><g transform="translate(71.224917, 30.386603)"><g><path d="M 7.546875 -9.625 C 8.640625 -9.625 9.457031 -9.316406 10 -8.703125 C 10.550781 -8.097656 10.828125 -7.226562 10.828125 -6.09375 L 10.828125 0 L 7.28125 0 L 7.28125 -5.671875 C 7.28125 -6.066406 7.175781 -6.382812 6.96875 -6.625 C 6.757812 -6.875 6.46875 -7 6.09375 -7 C 5.65625 -7 5.296875 -6.851562 5.015625 -6.5625 C 4.742188 -6.28125 4.609375 -5.929688 4.609375 -5.515625 L 4.609375 0 L 1.0625 0 L 1.0625 -9.40625 L 3.96875 -9.40625 L 4.203125 -7.984375 C 4.566406 -8.484375 5.050781 -8.878906 5.65625 -9.171875 C 6.257812 -9.472656 6.890625 -9.625 7.546875 -9.625 Z M 7.546875 -9.625 "/></g></g></g><g fill="#fdfdfd" fill-opacity="1"><g transform="translate(83.994363, 30.386603)"><g><path d="M 5.375 -2.40625 L 9.53125 -2.40625 L 9.53125 0 L 0.359375 0 L 0.359375 -1.15625 L 4.3125 -7 L 0.5625 -7 L 0.5625 -9.40625 L 9.375 -9.40625 L 9.375 -8.296875 Z M 5.375 -2.40625 "/></g></g></g><g fill="#ffffff" fill-opacity="1"><g transform="translate(90.469456, 33.860284)"><g><path d="M 5.375 -2.40625 L 9.53125 -2.40625 L 9.53125 0 L 0.359375 0 L 0.359375 -1.15625 L 4.3125 -7 L 0.5625 -7 L 0.5625 -9.40625 L 9.375 -9.40625 L 9.375 -8.296875 Z M 5.375 -2.40625 "/></g></g></g><g fill="#ffffff" fill-opacity="1"><g transform="translate(101.259176, 33.860284)"><g><path d="M 5.9375 -9.625 C 7.582031 -9.625 8.875 -9.203125 9.8125 -8.359375 C 10.757812 -7.523438 11.234375 -6.304688 11.234375 -4.703125 C 11.234375 -3.097656 10.757812 -1.875 9.8125 -1.03125 C 8.875 -0.195312 7.582031 0.21875 5.9375 0.21875 C 4.28125 0.21875 2.984375 -0.195312 2.046875 -1.03125 C 1.109375 -1.863281 0.640625 -3.085938 0.640625 -4.703125 C 0.640625 -6.316406 1.109375 -7.539062 2.046875 -8.375 C 2.984375 -9.207031 4.28125 -9.625 5.9375 -9.625 Z M 5.9375 -7.21875 C 4.769531 -7.21875 4.1875 -6.546875 4.1875 -5.203125 L 4.1875 -4.1875 C 4.1875 -2.851562 4.769531 -2.1875 5.9375 -2.1875 C 7.101562 -2.1875 7.6875 -2.851562 7.6875 -4.1875 L 7.6875 -5.203125 C 7.6875 -6.546875 7.101562 -7.21875 5.9375 -7.21875 Z M 5.9375 -7.21875 "/></g></g></g><g fill="#ffffff" fill-opacity="1"><g transform="translate(40.570997, 35.659445)"><g><path d="M 0.234375 -3.15625 L 1.203125 -3.15625 C 1.503906 -3.15625 1.742188 -3.09375 1.921875 -2.96875 C 2.097656 -2.84375 2.1875 -2.640625 2.1875 -2.359375 C 2.1875 -2.035156 2.050781 -1.804688 1.78125 -1.671875 C 2.238281 -1.597656 2.46875 -1.332031 2.46875 -0.875 C 2.46875 -0.613281 2.375 -0.398438 2.1875 -0.234375 C 2 -0.078125 1.742188 0 1.421875 0 L 0.234375 0 Z M 0.953125 -1.921875 L 1 -1.921875 C 1.164062 -1.921875 1.285156 -1.945312 1.359375 -2 C 1.441406 -2.0625 1.484375 -2.15625 1.484375 -2.28125 C 1.484375 -2.5 1.320312 -2.609375 1 -2.609375 L 0.953125 -2.609375 Z M 0.953125 -0.5625 L 1.171875 -0.5625 C 1.523438 -0.5625 1.703125 -0.675781 1.703125 -0.90625 C 1.703125 -1.050781 1.65625 -1.148438 1.5625 -1.203125 C 1.476562 -1.265625 1.347656 -1.296875 1.171875 -1.296875 L 0.953125 -1.296875 Z M 0.953125 -0.5625 "/></g></g></g><g fill="#ffffff" fill-opacity="1"><g transform="translate(43.316875, 35.659445)"><g><path d="M 1.828125 -3.15625 L 3.109375 0 L 2.328125 0 L 2.109375 -0.625 L 0.90625 -0.625 L 0.671875 0 L -0.109375 0 L 1.171875 -3.15625 Z M 1.859375 -1.265625 L 1.5 -2.1875 L 1.140625 -1.265625 Z M 1.859375 -1.265625 "/></g></g></g><g fill="#ffffff" fill-opacity="1"><g transform="translate(46.515288, 35.659445)"><g><path d="M 0.234375 -3.15625 L 1.359375 -3.15625 C 1.660156 -3.15625 1.90625 -3.070312 2.09375 -2.90625 C 2.289062 -2.75 2.390625 -2.519531 2.390625 -2.21875 C 2.390625 -1.988281 2.332031 -1.796875 2.21875 -1.640625 C 2.101562 -1.484375 1.941406 -1.375 1.734375 -1.3125 L 2.828125 0 L 1.90625 0 L 0.953125 -1.25 L 0.953125 0 L 0.234375 0 Z M 0.953125 -1.75 L 1.03125 -1.75 C 1.101562 -1.75 1.160156 -1.75 1.203125 -1.75 C 1.242188 -1.757812 1.296875 -1.769531 1.359375 -1.78125 C 1.421875 -1.800781 1.46875 -1.820312 1.5 -1.84375 C 1.53125 -1.875 1.554688 -1.914062 1.578125 -1.96875 C 1.609375 -2.03125 1.625 -2.097656 1.625 -2.171875 C 1.625 -2.242188 1.609375 -2.304688 1.578125 -2.359375 C 1.554688 -2.421875 1.53125 -2.460938 1.5 -2.484375 C 1.46875 -2.515625 1.421875 -2.535156 1.359375 -2.546875 C 1.296875 -2.566406 1.242188 -2.578125 1.203125 -2.578125 C 1.160156 -2.578125 1.101562 -2.578125 1.03125 -2.578125 L 0.953125 -2.578125 Z M 0.953125 -1.75 "/></g></g></g><g fill="#ffffff" fill-opacity="1"><g transform="translate(49.452917, 35.659445)"><g><path d="M 0.234375 -3.15625 L 1.203125 -3.15625 C 1.503906 -3.15625 1.742188 -3.09375 1.921875 -2.96875 C 2.097656 -2.84375 2.1875 -2.640625 2.1875 -2.359375 C 2.1875 -2.035156 2.050781 -1.804688 1.78125 -1.671875 C 2.238281 -1.597656 2.46875 -1.332031 2.46875 -0.875 C 2.46875 -0.613281 2.375 -0.398438 2.1875 -0.234375 C 2 -0.078125 1.742188 0 1.421875 0 L 0.234375 0 Z M 0.953125 -1.921875 L 1 -1.921875 C 1.164062 -1.921875 1.285156 -1.945312 1.359375 -2 C 1.441406 -2.0625 1.484375 -2.15625 1.484375 -2.28125 C 1.484375 -2.5 1.320312 -2.609375 1 -2.609375 L 0.953125 -2.609375 Z M 0.953125 -0.5625 L 1.171875 -0.5625 C 1.523438 -0.5625 1.703125 -0.675781 1.703125 -0.90625 C 1.703125 -1.050781 1.65625 -1.148438 1.5625 -1.203125 C 1.476562 -1.265625 1.347656 -1.296875 1.171875 -1.296875 L 0.953125 -1.296875 Z M 0.953125 -0.5625 "/></g></g></g><g fill="#ffffff" fill-opacity="1"><g transform="translate(52.198795, 35.659445)"><g><path d="M 2.03125 -3.15625 L 2.03125 -2.53125 L 0.953125 -2.53125 L 0.953125 -1.90625 L 1.984375 -1.90625 L 1.984375 -1.265625 L 0.953125 -1.265625 L 0.953125 -0.625 L 2.03125 -0.625 L 2.03125 0 L 0.234375 0 L 0.234375 -3.15625 Z M 2.03125 -3.15625 "/></g></g></g><g fill="#ffffff" fill-opacity="1"><g transform="translate(54.614862, 35.659445)"><g><path d="M 0.234375 -3.15625 L 1.359375 -3.15625 C 1.660156 -3.15625 1.90625 -3.070312 2.09375 -2.90625 C 2.289062 -2.75 2.390625 -2.519531 2.390625 -2.21875 C 2.390625 -1.988281 2.332031 -1.796875 2.21875 -1.640625 C 2.101562 -1.484375 1.941406 -1.375 1.734375 -1.3125 L 2.828125 0 L 1.90625 0 L 0.953125 -1.25 L 0.953125 0 L 0.234375 0 Z M 0.953125 -1.75 L 1.03125 -1.75 C 1.101562 -1.75 1.160156 -1.75 1.203125 -1.75 C 1.242188 -1.757812 1.296875 -1.769531 1.359375 -1.78125 C 1.421875 -1.800781 1.46875 -1.820312 1.5 -1.84375 C 1.53125 -1.875 1.554688 -1.914062 1.578125 -1.96875 C 1.609375 -2.03125 1.625 -2.097656 1.625 -2.171875 C 1.625 -2.242188 1.609375 -2.304688 1.578125 -2.359375 C 1.554688 -2.421875 1.53125 -2.460938 1.5 -2.484375 C 1.46875 -2.515625 1.421875 -2.535156 1.359375 -2.546875 C 1.296875 -2.566406 1.242188 -2.578125 1.203125 -2.578125 C 1.160156 -2.578125 1.101562 -2.578125 1.03125 -2.578125 L 0.953125 -2.578125 Z M 0.953125 -1.75 "/></g></g></g><g fill="#ffffff" fill-opacity="1"><g transform="translate(57.552491, 35.659445)"><g/></g></g><g fill="#ffffff" fill-opacity="1"><g transform="translate(58.791202, 35.659445)"><g><path d="M 1.390625 -3.21875 C 1.566406 -3.21875 1.734375 -3.191406 1.890625 -3.140625 C 2.054688 -3.085938 2.179688 -3.039062 2.265625 -3 L 2.375 -2.921875 L 2.078125 -2.34375 C 2.054688 -2.351562 2.023438 -2.367188 1.984375 -2.390625 C 1.941406 -2.421875 1.863281 -2.457031 1.75 -2.5 C 1.644531 -2.539062 1.539062 -2.5625 1.4375 -2.5625 C 1.320312 -2.5625 1.226562 -2.535156 1.15625 -2.484375 C 1.09375 -2.429688 1.0625 -2.363281 1.0625 -2.28125 C 1.0625 -2.238281 1.078125 -2.195312 1.109375 -2.15625 C 1.140625 -2.125 1.191406 -2.082031 1.265625 -2.03125 C 1.335938 -1.988281 1.398438 -1.957031 1.453125 -1.9375 C 1.515625 -1.914062 1.601562 -1.878906 1.71875 -1.828125 C 1.925781 -1.734375 2.101562 -1.613281 2.25 -1.46875 C 2.394531 -1.320312 2.46875 -1.148438 2.46875 -0.953125 C 2.46875 -0.773438 2.429688 -0.617188 2.359375 -0.484375 C 2.296875 -0.347656 2.207031 -0.238281 2.09375 -0.15625 C 1.976562 -0.0820312 1.851562 -0.03125 1.71875 0 C 1.582031 0.0390625 1.4375 0.0625 1.28125 0.0625 C 1.132812 0.0625 0.992188 0.046875 0.859375 0.015625 C 0.734375 -0.015625 0.625 -0.0507812 0.53125 -0.09375 C 0.445312 -0.132812 0.367188 -0.175781 0.296875 -0.21875 C 0.222656 -0.257812 0.171875 -0.289062 0.140625 -0.3125 L 0.09375 -0.359375 L 0.453125 -0.96875 C 0.484375 -0.9375 0.523438 -0.898438 0.578125 -0.859375 C 0.628906 -0.828125 0.722656 -0.773438 0.859375 -0.703125 C 0.992188 -0.640625 1.113281 -0.609375 1.21875 -0.609375 C 1.519531 -0.609375 1.671875 -0.710938 1.671875 -0.921875 C 1.671875 -0.960938 1.660156 -1 1.640625 -1.03125 C 1.617188 -1.070312 1.582031 -1.109375 1.53125 -1.140625 C 1.476562 -1.179688 1.429688 -1.210938 1.390625 -1.234375 C 1.347656 -1.253906 1.273438 -1.285156 1.171875 -1.328125 C 1.078125 -1.378906 1.007812 -1.414062 0.96875 -1.4375 C 0.769531 -1.53125 0.617188 -1.644531 0.515625 -1.78125 C 0.410156 -1.925781 0.359375 -2.082031 0.359375 -2.25 C 0.359375 -2.53125 0.460938 -2.757812 0.671875 -2.9375 C 0.878906 -3.125 1.117188 -3.21875 1.390625 -3.21875 Z M 1.390625 -3.21875 "/></g></g></g><g fill="#ffffff" fill-opacity="1"><g transform="translate(61.560091, 35.659445)"><g><path d="M 0.953125 -1.265625 L 0.953125 0 L 0.234375 0 L 0.234375 -3.15625 L 0.953125 -3.15625 L 0.953125 -1.90625 L 1.96875 -1.90625 L 1.96875 -3.15625 L 2.6875 -3.15625 L 2.6875 0 L 1.96875 0 L 1.96875 -1.265625 Z M 0.953125 -1.265625 "/></g></g></g><g fill="#ffffff" fill-opacity="1"><g transform="translate(64.67413, 35.659445)"><g><path d="M 0.09375 -1.578125 C 0.09375 -2.035156 0.242188 -2.421875 0.546875 -2.734375 C 0.859375 -3.054688 1.238281 -3.21875 1.6875 -3.21875 C 2.125 -3.21875 2.492188 -3.054688 2.796875 -2.734375 C 3.109375 -2.421875 3.265625 -2.035156 3.265625 -1.578125 C 3.265625 -1.117188 3.113281 -0.726562 2.8125 -0.40625 C 2.507812 -0.09375 2.132812 0.0625 1.6875 0.0625 C 1.21875 0.0625 0.832031 -0.09375 0.53125 -0.40625 C 0.238281 -0.71875 0.09375 -1.109375 0.09375 -1.578125 Z M 0.859375 -1.578125 C 0.859375 -1.410156 0.882812 -1.257812 0.9375 -1.125 C 0.988281 -0.988281 1.078125 -0.875 1.203125 -0.78125 C 1.335938 -0.6875 1.5 -0.640625 1.6875 -0.640625 C 1.945312 -0.640625 2.144531 -0.726562 2.28125 -0.90625 C 2.414062 -1.09375 2.484375 -1.316406 2.484375 -1.578125 C 2.484375 -1.835938 2.414062 -2.054688 2.28125 -2.234375 C 2.144531 -2.421875 1.945312 -2.515625 1.6875 -2.515625 C 1.425781 -2.515625 1.222656 -2.421875 1.078125 -2.234375 C 0.929688 -2.054688 0.859375 -1.835938 0.859375 -1.578125 Z M 0.859375 -1.578125 "/></g></g></g><g fill="#ffffff" fill-opacity="1"><g transform="translate(68.229202, 35.659445)"><g><path d="M 0.234375 -3.15625 L 1.375 -3.15625 C 1.695312 -3.15625 1.957031 -3.070312 2.15625 -2.90625 C 2.363281 -2.738281 2.46875 -2.5 2.46875 -2.1875 C 2.46875 -1.875 2.363281 -1.625 2.15625 -1.4375 C 1.957031 -1.257812 1.695312 -1.171875 1.375 -1.171875 L 0.953125 -1.171875 L 0.953125 0 L 0.234375 0 Z M 0.953125 -1.75 L 1.15625 -1.75 C 1.3125 -1.75 1.441406 -1.78125 1.546875 -1.84375 C 1.648438 -1.90625 1.703125 -2.007812 1.703125 -2.15625 C 1.703125 -2.3125 1.648438 -2.421875 1.546875 -2.484375 C 1.441406 -2.546875 1.3125 -2.578125 1.15625 -2.578125 L 0.953125 -2.578125 Z M 0.953125 -1.75 "/></g></g></g><g fill="#ffffff" fill-opacity="1"><g transform="translate(70.975079, 35.659445)"><g/></g></g><g fill="#ffffff" fill-opacity="1"><g transform="translate(72.213789, 35.659445)"><g><path d="M 1.90625 -0.65625 C 2.019531 -0.65625 2.128906 -0.671875 2.234375 -0.703125 C 2.335938 -0.734375 2.410156 -0.765625 2.453125 -0.796875 L 2.53125 -0.84375 L 2.84375 -0.234375 C 2.832031 -0.222656 2.816406 -0.210938 2.796875 -0.203125 C 2.773438 -0.191406 2.734375 -0.164062 2.671875 -0.125 C 2.609375 -0.09375 2.535156 -0.0625 2.453125 -0.03125 C 2.378906 -0.0078125 2.28125 0.0078125 2.15625 0.03125 C 2.039062 0.0507812 1.921875 0.0625 1.796875 0.0625 C 1.503906 0.0625 1.226562 -0.0078125 0.96875 -0.15625 C 0.707031 -0.300781 0.492188 -0.5 0.328125 -0.75 C 0.171875 -1.007812 0.09375 -1.285156 0.09375 -1.578125 C 0.09375 -1.796875 0.140625 -2.003906 0.234375 -2.203125 C 0.328125 -2.410156 0.453125 -2.585938 0.609375 -2.734375 C 0.765625 -2.878906 0.945312 -2.992188 1.15625 -3.078125 C 1.363281 -3.171875 1.578125 -3.21875 1.796875 -3.21875 C 2.003906 -3.21875 2.191406 -3.191406 2.359375 -3.140625 C 2.535156 -3.085938 2.660156 -3.039062 2.734375 -3 L 2.84375 -2.921875 L 2.53125 -2.3125 C 2.507812 -2.320312 2.476562 -2.335938 2.4375 -2.359375 C 2.40625 -2.390625 2.335938 -2.421875 2.234375 -2.453125 C 2.128906 -2.484375 2.019531 -2.5 1.90625 -2.5 C 1.738281 -2.5 1.582031 -2.472656 1.4375 -2.421875 C 1.300781 -2.367188 1.191406 -2.296875 1.109375 -2.203125 C 1.035156 -2.109375 0.976562 -2.007812 0.9375 -1.90625 C 0.894531 -1.800781 0.875 -1.691406 0.875 -1.578125 C 0.875 -1.335938 0.960938 -1.125 1.140625 -0.9375 C 1.316406 -0.75 1.570312 -0.65625 1.90625 -0.65625 Z M 1.90625 -0.65625 "/></g></g></g><g fill="#ffffff" fill-opacity="1"><g transform="translate(75.293313, 35.659445)"><g><path d="M 1.828125 -3.15625 L 3.109375 0 L 2.328125 0 L 2.109375 -0.625 L 0.90625 -0.625 L 0.671875 0 L -0.109375 0 L 1.171875 -3.15625 Z M 1.859375 -1.265625 L 1.5 -2.1875 L 1.140625 -1.265625 Z M 1.859375 -1.265625 "/></g></g></g><g fill="#ffffff" fill-opacity="1"><g transform="translate(78.491725, 35.659445)"><g><path d="M 2.0625 -3.15625 L 2.0625 -2.53125 L 0.953125 -2.53125 L 0.953125 -1.90625 L 1.96875 -1.90625 L 1.96875 -1.265625 L 0.953125 -1.265625 L 0.953125 0 L 0.234375 0 L 0.234375 -3.15625 Z M 2.0625 -3.15625 "/></g></g></g><g fill="#ffffff" fill-opacity="1"><g transform="translate(80.857936, 35.659445)"><g><path d="M 2.03125 -3.15625 L 2.03125 -2.53125 L 0.953125 -2.53125 L 0.953125 -1.90625 L 1.984375 -1.90625 L 1.984375 -1.265625 L 0.953125 -1.265625 L 0.953125 -0.625 L 2.03125 -0.625 L 2.03125 0 L 0.234375 0 L 0.234375 -3.15625 Z M 2.03125 -3.15625 "/></g></g></g><g clip-path="url(#3788be9fc3)"><path fill="#ffffff" d="M 90.28125 15.667969 C 90 14.746094 89.394531 13.902344 88.550781 13.257812 C 88.109375 12.894531 87.628906 12.65625 87.105469 12.453125 C 86.621094 12.292969 86.101562 12.171875 85.617188 12.171875 C 84.695312 12.171875 83.890625 12.535156 83.367188 13.175781 C 83.085938 13.539062 82.925781 13.941406 82.84375 14.382812 C 82.84375 14.464844 82.84375 14.542969 82.804688 14.625 C 82.683594 14.585938 82.5625 14.542969 82.445312 14.464844 C 82.445312 14.464844 79.429688 11.488281 78.546875 11.25 C 78.546875 11.25 77.179688 10.566406 76.65625 10.082031 L 76.738281 10.003906 L 85.136719 4.09375 C 86.664062 3.089844 85.820312 1.804688 85.820312 1.804688 L 75.332031 8.316406 C 74.808594 8.675781 74.445312 8.71875 74.445312 8.71875 C 74.164062 8.757812 73.601562 8.515625 73.601562 8.515625 C 70.308594 5.621094 62.992188 2.449219 62.992188 2.449219 C 65.242188 4.738281 72.4375 10.003906 72.4375 10.003906 C 72.15625 10.40625 70.429688 11.207031 70.429688 11.207031 C 68.941406 11.890625 66.851562 13.578125 66.046875 14.261719 C 65.96875 13.859375 65.804688 13.5 65.566406 13.175781 C 65.042969 12.535156 64.28125 12.171875 63.316406 12.171875 C 62.832031 12.171875 62.351562 12.253906 61.828125 12.453125 C 61.304688 12.65625 60.824219 12.894531 60.382812 13.257812 C 59.539062 13.902344 58.933594 14.785156 58.652344 15.667969 C 58.53125 16.109375 58.492188 16.59375 58.53125 16.996094 C 58.613281 17.4375 58.773438 17.878906 59.054688 18.199219 C 59.578125 18.84375 60.339844 19.207031 61.304688 19.207031 C 61.789062 19.207031 62.269531 19.125 62.792969 18.925781 C 63.316406 18.722656 63.796875 18.480469 64.238281 18.121094 C 64.679688 17.757812 65.082031 17.355469 65.363281 16.914062 C 66.089844 16.191406 68.738281 13.621094 70.507812 12.613281 C 70.949219 12.574219 71.152344 12.292969 71.152344 12.292969 C 71.59375 12.132812 73.644531 12.171875 73.644531 12.171875 L 74.605469 11.53125 L 75.652344 12.375 C 75.652344 12.375 77.582031 12.734375 78.265625 12.65625 C 78.265625 12.65625 78.382812 12.65625 78.503906 12.65625 C 80.472656 13.78125 83.40625 16.753906 83.730469 17.074219 C 84.011719 17.4375 84.332031 17.800781 84.734375 18.121094 C 85.175781 18.480469 85.660156 18.722656 86.179688 18.925781 C 86.664062 19.125 87.183594 19.207031 87.667969 19.207031 C 88.59375 19.207031 89.394531 18.84375 89.917969 18.199219 C 90.199219 17.839844 90.359375 17.4375 90.441406 16.996094 C 90.480469 16.554688 90.441406 16.109375 90.28125 15.667969 Z M 64.960938 15.429688 C 64.761719 16.152344 64.28125 16.835938 63.597656 17.355469 C 62.914062 17.917969 62.070312 18.199219 61.304688 18.199219 C 60.664062 18.199219 60.140625 18 59.859375 17.597656 C 59.539062 17.15625 59.457031 16.59375 59.65625 15.949219 C 59.859375 15.226562 60.339844 14.542969 61.023438 14.019531 C 61.707031 13.457031 62.550781 13.175781 63.316406 13.175781 C 63.957031 13.175781 64.480469 13.378906 64.761719 13.78125 C 65.082031 14.183594 65.164062 14.785156 64.960938 15.429688 Z M 74.445312 10.605469 C 74.164062 10.605469 73.964844 10.40625 73.964844 10.125 C 73.964844 9.84375 74.164062 9.640625 74.445312 9.640625 C 74.726562 9.640625 74.929688 9.84375 74.929688 10.125 C 74.929688 10.363281 74.726562 10.605469 74.445312 10.605469 Z M 89.113281 17.597656 C 88.792969 18 88.269531 18.199219 87.667969 18.199219 C 86.902344 18.199219 86.058594 17.878906 85.378906 17.355469 C 84.695312 16.835938 84.210938 16.152344 84.011719 15.429688 C 83.808594 14.785156 83.890625 14.183594 84.210938 13.78125 C 84.53125 13.378906 85.054688 13.175781 85.660156 13.175781 C 86.421875 13.175781 87.265625 13.5 87.949219 14.019531 C 88.632812 14.542969 89.113281 15.226562 89.316406 15.949219 C 89.515625 16.59375 89.4375 17.195312 89.113281 17.597656 Z M 89.113281 17.597656 " fill-opacity="1" fill-rule="nonzero"/></g></svg>